# xmcd CD database file
#
# Track frame offsets:
#	150
#	32192
#	56678
#	87270
#	106908
#	140867
#	190911
#
# Disc length: 2863 seconds
#
# Revision: 0
# Processed by: cddbd v1.4PL0 Copyright (c) Steve Scherf et al.
# Submitted via: CDex 1.50Beta7
#
DISCID=610b2d07
DTITLE=Jon Hassel - Power Spot
DYEAR=1984
DGENRE=Jazz
TTITLE0=Pwer Spot
TTITLE1=Passage DE
TTITLE2=Solaire
TTITLE3=Miracle Steps
TTITLE4=Wing Melodies
TTITLE5=The Elephant And The Orchid
TTITLE6=Air
EXTD=YEAR: 1984
EXTT0=
EXTT1=
EXTT2=
EXTT3=
EXTT4=
EXTT5=
EXTT6=
PLAYORDER=
